<svg width="149" height="26" viewBox="0 0 149 26" fill="none" xmlns="http://www.w3.org/2000/svg">
<path d="M9.54102 26H0.259766V24.1367L3.2832 23.4512V2.88477L0.259766 2.16406V0.300781H9.54102V2.16406L6.51758 2.88477V23.4512L9.54102 24.1367V26ZM14.5156 0.300781H21.8457C25.291 0.300781 27.7754 0.816406 29.2988 1.84766C30.834 2.86719 31.6016 4.47266 31.6016 6.66406C31.6016 8.1875 31.1855 9.44727 30.3535 10.4434C29.5215 11.4277 28.3086 12.0664 26.7148 12.3594V12.5352C28.6953 12.875 30.1484 13.5605 31.0742 14.5918C32.0117 15.623 32.4805 16.9883 32.4805 18.6875C32.4805 20.9844 31.6953 22.7773 30.125 24.0664C28.5547 25.3555 26.3633 26 23.5508 26H14.5156V0.300781ZM17.75 11.2344H22.4961C24.5117 11.2344 25.9766 10.9121 26.8906 10.2676C27.8047 9.62305 28.2617 8.54492 28.2617 7.0332C28.2617 5.62695 27.7578 4.61328 26.75 3.99219C25.7539 3.37109 24.1719 3.06055 22.0039 3.06055H17.75V11.2344ZM17.75 13.9414V23.2578H22.9355C24.998 23.2578 26.5273 22.8594 27.5234 22.0625C28.5195 21.2656 29.0176 20.0586 29.0176 18.4414C29.0176 16.9062 28.4902 15.7754 27.4355 15.0488C26.3809 14.3105 24.7988 13.9414 22.6895 13.9414H17.75ZM53.6973 26L50.6035 18.0371H40.4082L37.3496 26H34.0801L44.1172 0.195312H47.0352L57.0547 26H53.6973ZM49.6367 15.1719L46.7539 7.38477L45.5234 3.53516C45.1719 4.94141 44.8027 6.22461 44.416 7.38477L41.498 15.1719H49.6367ZM80.9785 26H77.1992L63.4355 4.66016H63.2949L63.3828 6.08398C63.5234 8.2168 63.5938 10.0684 63.5938 11.6387V26H60.6055V0.300781H64.3496L65.1406 1.54883L73.5781 14.5918L78.0605 21.5703H78.2012C78.1777 21.2891 78.1309 20.2871 78.0605 18.5645C77.9902 16.8301 77.9551 15.5762 77.9551 14.8027V0.300781H80.9785V26ZM106.748 26H102.934L93.8105 13.7305L91.1914 16.0332V26H87.957V0.300781H91.1914V12.9746L93.4062 10.5312L102.564 0.300781H106.344L96.166 11.498L106.748 26ZM124.607 26H110.246V0.300781H124.607V3.14844H113.48V11.1641H123.957V13.9766H113.48V23.1523H124.607V26ZM133.52 12.6406H137.369C139.455 12.6406 140.979 12.2305 141.939 11.4102C142.9 10.5898 143.381 9.37109 143.381 7.75391C143.381 6.13672 142.895 4.95898 141.922 4.2207C140.949 3.4707 139.373 3.0957 137.193 3.0957H133.52V12.6406ZM133.52 15.3828V26H130.285V0.300781H137.369C140.557 0.300781 142.912 0.910156 144.436 2.12891C145.971 3.33594 146.738 5.1582 146.738 7.5957C146.738 11.0059 145.021 13.3027 141.588 14.4863L148.637 26H144.857L138.635 15.3828H133.52Z" fill="white"/>
</svg>
